<?xml version="1.0" encoding="UTF-8" standalone="no"?>
<!-- Created with Inkscape (http://www.inkscape.org/) -->

<svg
   width="36.2458mm"
   height="38.640358mm"
   viewBox="0 0 36.2458 38.640358"
   version="1.1"
   id="svg5"
   xml:space="preserve"
   inkscape:version="1.2.1 (9c6d41e410, 2022-07-14)"
   sodipodi:docname="Qb2_M12_connector_layout.svg"
   xmlns:inkscape="http://www.inkscape.org/namespaces/inkscape"
   xmlns:sodipodi="http://sodipodi.sourceforge.net/DTD/sodipodi-0.dtd"
   xmlns="http://www.w3.org/2000/svg"
   xmlns:svg="http://www.w3.org/2000/svg"><sodipodi:namedview
     id="namedview7"
     pagecolor="#ffffff"
     bordercolor="#666666"
     borderopacity="1.0"
     inkscape:showpageshadow="2"
     inkscape:pageopacity="0.0"
     inkscape:pagecheckerboard="0"
     inkscape:deskcolor="#d1d1d1"
     inkscape:document-units="mm"
     showgrid="false"
     inkscape:zoom="1.9855336"
     inkscape:cx="98.210374"
     inkscape:cy="103.2468"
     inkscape:window-width="2880"
     inkscape:window-height="1526"
     inkscape:window-x="2869"
     inkscape:window-y="-11"
     inkscape:window-maximized="1"
     inkscape:current-layer="g152" /><defs
     id="defs2"><clipPath
       clipPathUnits="userSpaceOnUse"
       id="clipPath156"><path
         d="M 0,595.276 H 419.528 V 0 H 0 Z"
         id="path154" /></clipPath><clipPath
       clipPathUnits="userSpaceOnUse"
       id="clipPath172"><path
         d="m 289.134,543.67 h 93.543 v 28.357 h -93.543 z"
         id="path170" /></clipPath><clipPath
       clipPathUnits="userSpaceOnUse"
       id="clipPath234"><path
         d="m 289.134,543.67 h 93.543 v 28.357 h -93.543 z"
         id="path232" /></clipPath><clipPath
       clipPathUnits="userSpaceOnUse"
       id="clipPath250"><path
         d="m 289.134,543.67 h 93.543 v 28.357 h -93.543 z"
         id="path248" /></clipPath><clipPath
       clipPathUnits="userSpaceOnUse"
       id="clipPath300"><path
         d="m 289.134,543.67 h 93.543 v 28.357 h -93.543 z"
         id="path298" /></clipPath><clipPath
       clipPathUnits="userSpaceOnUse"
       id="clipPath316"><path
         d="M 85.499,394.475 H 382.217 V 521.658 H 85.499 Z"
         id="path314" /></clipPath><clipPath
       clipPathUnits="userSpaceOnUse"
       id="clipPath372"><path
         d="M 85.499,394.475 H 382.217 V 521.658 H 85.499 Z"
         id="path370" /></clipPath><clipPath
       clipPathUnits="userSpaceOnUse"
       id="clipPath388"><path
         d="M 85.499,394.475 H 382.217 V 521.658 H 85.499 Z"
         id="path386" /></clipPath><clipPath
       clipPathUnits="userSpaceOnUse"
       id="clipPath408"><path
         d="M 85.499,394.475 H 382.217 V 521.658 H 85.499 Z"
         id="path406" /></clipPath><clipPath
       clipPathUnits="userSpaceOnUse"
       id="clipPath428"><path
         d="M 85.499,394.475 H 382.217 V 521.658 H 85.499 Z"
         id="path426" /></clipPath><clipPath
       clipPathUnits="userSpaceOnUse"
       id="clipPath448"><path
         d="M 85.499,394.475 H 382.217 V 521.658 H 85.499 Z"
         id="path446" /></clipPath><clipPath
       clipPathUnits="userSpaceOnUse"
       id="clipPath468"><path
         d="M 85.499,394.475 H 382.217 V 521.658 H 85.499 Z"
         id="path466" /></clipPath><clipPath
       clipPathUnits="userSpaceOnUse"
       id="clipPath488"><path
         d="M 85.499,394.475 H 382.217 V 521.658 H 85.499 Z"
         id="path486" /></clipPath><clipPath
       clipPathUnits="userSpaceOnUse"
       id="clipPath508"><path
         d="M 85.499,394.475 H 382.217 V 521.658 H 85.499 Z"
         id="path506" /></clipPath><clipPath
       clipPathUnits="userSpaceOnUse"
       id="clipPath528"><path
         d="M 85.499,394.475 H 382.217 V 521.658 H 85.499 Z"
         id="path526" /></clipPath></defs><g
     inkscape:label="Layer 1"
     inkscape:groupmode="layer"
     id="layer1"
     transform="translate(-95.405596,-72.391564)"><g
       id="g138"
       inkscape:label="Blickfeld_Manual_en_v.4.2"
       transform="matrix(0.35277777,0,0,-0.35277777,31.156015,254.21492)"><g
         id="g148"><g
           id="g150"><g
             id="g152"
             clip-path="url(#clipPath156)" /></g></g><g
         id="g310"><g
           id="g312"
           clip-path="url(#clipPath316)"><g
             id="g318"
             transform="translate(265.3768,464.0324)"><path
               d="m 0,0 c 0,-17.607 -14.273,-31.88 -31.88,-31.88 -17.606,0 -31.879,14.273 -31.879,31.88 0,17.607 14.273,31.88 31.879,31.88 C -14.273,31.88 0,17.607 0,0"
               style="fill:#30373a;fill-opacity:1;fill-rule:nonzero;stroke:none"
               id="path320" /></g><g
             id="g322"
             transform="translate(225.2255,485.0642)"><path
               d="m 0,0 c 0.864,-1.496 0.351,-3.41 -1.145,-4.274 -1.497,-0.864 -3.411,-0.351 -4.275,1.145 -0.864,1.497 -0.351,3.41 1.146,4.274 C -2.778,2.009 -0.864,1.497 0,0"
               style="fill:#ffffff;fill-opacity:1;fill-rule:nonzero;stroke:none"
               id="path324" /></g><g
             id="g326"
             transform="translate(215.8177,478.1107)"><path
               d="m 0,0 c 1.497,-0.864 2.009,-2.778 1.145,-4.274 -0.864,-1.497 -2.777,-2.01 -4.274,-1.145 -1.497,0.864 -2.009,2.777 -1.145,4.274 C -3.41,0.351 -1.497,0.864 0,0"
               style="fill:#ffffff;fill-opacity:1;fill-rule:nonzero;stroke:none"
               id="path328" /></g><g
             id="g330"
             transform="translate(212.4653,455.7608)"><path
               d="M 0,0 C 1.497,0.864 3.41,0.351 4.274,-1.145 5.138,-2.642 4.626,-4.556 3.129,-5.42 1.632,-6.284 -0.281,-5.771 -1.145,-4.274 -2.009,-2.778 -1.497,-0.864 0,0"
               style="fill:#ffffff;fill-opacity:1;fill-rule:nonzero;stroke:none"
               id="path332" /></g><g
             id="g334"
             transform="translate(219.4188,446.353)"><path
               d="M 0,0 C 0.864,1.497 2.778,2.009 4.274,1.145 5.771,0.281 6.284,-1.632 5.42,-3.129 4.556,-4.626 2.642,-5.138 1.145,-4.274 -0.351,-3.41 -0.864,-1.496 0,0"
               style="fill:#ffffff;fill-opacity:1;fill-rule:nonzero;stroke:none"
               id="path336" /></g><g
             id="g338"
             transform="translate(241.7687,443.0006)"><path
               d="M 0,0 C -0.864,1.496 -0.351,3.41 1.145,4.274 2.642,5.138 4.555,4.625 5.419,3.129 6.284,1.632 5.771,-0.281 4.274,-1.145 2.778,-2.009 0.864,-1.497 0,0"
               style="fill:#ffffff;fill-opacity:1;fill-rule:nonzero;stroke:none"
               id="path340" /></g><g
             id="g342"
             transform="translate(251.1765,449.9541)"><path
               d="M 0,0 C -1.497,0.864 -2.009,2.778 -1.145,4.274 -0.281,5.771 1.632,6.284 3.129,5.42 4.625,4.556 5.138,2.642 4.274,1.145 3.41,-0.351 1.497,-0.864 0,0"
               style="fill:#ffffff;fill-opacity:1;fill-rule:nonzero;stroke:none"
               id="path344" /></g><g
             id="g346"
             transform="translate(254.5288,472.3041)"><path
               d="m 0,0 c -1.496,-0.864 -3.41,-0.351 -4.274,1.145 -0.864,1.497 -0.351,3.41 1.145,4.274 1.497,0.865 3.41,0.352 4.274,-1.145 C 2.009,2.778 1.497,0.864 0,0"
               style="fill:#ffffff;fill-opacity:1;fill-rule:nonzero;stroke:none"
               id="path348" /></g><g
             id="g350"
             transform="translate(247.5754,481.7118)"><path
               d="m 0,0 c -0.864,-1.497 -2.778,-2.009 -4.274,-1.145 -1.497,0.864 -2.01,2.777 -1.146,4.274 0.865,1.496 2.778,2.009 4.275,1.145 C 0.351,3.41 0.864,1.496 0,0"
               style="fill:#ffffff;fill-opacity:1;fill-rule:nonzero;stroke:none"
               id="path352" /></g></g></g><g
         id="g354"
         transform="translate(284.8688,466.2628)"><path
           d="m 0,0 h -42.806 v 6.336 h -6.335 v 42.806 h -4.461 V 0 h -49.142 v -4.461 h 49.142 v -49.141 h 4.461 V -4.461 H 0 Z"
           style="fill:#ffffff;fill-opacity:1;fill-rule:nonzero;stroke:none"
           id="path356" /></g><g
         id="g358"
         transform="translate(222.9684,482.2688)"><path
           d="m 0,0 -12.41,21.494 m 4.702,-29.202 -21.494,12.41 m 21.494,-33.467 -21.494,-12.41 M 0,-36.473 -12.41,-57.967 m 33.468,21.494 12.409,-21.494 m -4.702,29.202 21.495,-12.41 M 28.765,-7.708 50.26,4.702 M 21.058,0 33.467,21.494"
           style="fill:none;stroke:#000000;stroke-width:0.502;stroke-linecap:butt;stroke-linejoin:miter;stroke-miterlimit:10;stroke-dasharray:none;stroke-opacity:1"
           id="path360" /></g><text
         xml:space="preserve"
         transform="matrix(1,0,0,-1,222.3856,405.9244)"
         style="font-variant:normal;font-weight:600;font-stretch:normal;font-size:7.3319px;font-family:'Montserrat SemiBold';-inkscape-font-specification:Montserrat-SemiBold;writing-mode:lr-tb;fill:#30373a;fill-opacity:1;fill-rule:nonzero;stroke:none"
         id="text364"><tspan
           x="0 5.0370154 8.4830084 13.651998 19.114264"
           y="0"
           sodipodi:role="line"
           id="tspan362">Front</tspan></text><g
         id="g366"><g
           id="g368"
           clip-path="url(#clipPath372)"><g
             id="g374"
             transform="translate(190.038,434.7817)"><path
               d="M 0,0 C 2.257,0 4.087,1.83 4.087,4.087 4.087,6.345 2.257,8.174 0,8.174 -2.257,8.174 -4.087,6.345 -4.087,4.087 -4.087,1.83 -2.257,0 0,0"
               style="fill:#ffffff;fill-opacity:1;fill-rule:nonzero;stroke:none"
               id="path376" /></g></g></g><text
         xml:space="preserve"
         transform="matrix(1,0,0,-1,188.51266,436.9398)"
         style="font-variant:normal;font-weight:500;font-stretch:normal;font-size:5.0238px;font-family:'Montserrat Medium';-inkscape-font-specification:Montserrat-Medium;writing-mode:lr-tb;fill:#30373a;fill-opacity:1;fill-rule:nonzero;stroke:none"
         id="text380"><tspan
           x="0"
           y="0"
           id="tspan378">6</tspan></text><g
         id="g382"><g
           id="g384"
           clip-path="url(#clipPath388)"><g
             id="g390"
             transform="translate(190.038,434.7817)"><path
               d="M 0,0 C 2.257,0 4.087,1.83 4.087,4.087 4.087,6.345 2.257,8.174 0,8.174 -2.257,8.174 -4.087,6.345 -4.087,4.087 -4.087,1.83 -2.257,0 0,0 Z"
               style="fill:none;stroke:#000000;stroke-width:0.37;stroke-linecap:butt;stroke-linejoin:miter;stroke-miterlimit:4;stroke-dasharray:none;stroke-opacity:1"
               id="path392" /></g><g
             id="g394"
             transform="translate(190.038,484.543)"><path
               d="M 0,0 C 2.257,0 4.087,1.83 4.087,4.087 4.087,6.345 2.257,8.174 0,8.174 -2.257,8.174 -4.087,6.345 -4.087,4.087 -4.087,1.83 -2.257,0 0,0"
               style="fill:#ffffff;fill-opacity:1;fill-rule:nonzero;stroke:none"
               id="path396" /></g></g></g><text
         xml:space="preserve"
         transform="matrix(1,0,0,-1,188.45991,486.701)"
         style="font-variant:normal;font-weight:500;font-stretch:normal;font-size:5.0238px;font-family:'Montserrat Medium';-inkscape-font-specification:Montserrat-Medium;writing-mode:lr-tb;fill:#30373a;fill-opacity:1;fill-rule:nonzero;stroke:none"
         id="text400"><tspan
           x="0"
           y="0"
           id="tspan398">7</tspan></text><g
         id="g402"><g
           id="g404"
           clip-path="url(#clipPath408)"><g
             id="g410"
             transform="translate(190.038,484.543)"><path
               d="M 0,0 C 2.257,0 4.087,1.83 4.087,4.087 4.087,6.345 2.257,8.174 0,8.174 -2.257,8.174 -4.087,6.345 -4.087,4.087 -4.087,1.83 -2.257,0 0,0 Z"
               style="fill:none;stroke:#000000;stroke-width:0.37;stroke-linecap:butt;stroke-linejoin:miter;stroke-miterlimit:4;stroke-dasharray:none;stroke-opacity:1"
               id="path412" /></g><g
             id="g414"
             transform="translate(276.7657,484.8857)"><path
               d="M 0,0 C 2.257,0 4.087,1.83 4.087,4.087 4.087,6.345 2.257,8.174 0,8.174 -2.257,8.174 -4.087,6.345 -4.087,4.087 -4.087,1.83 -2.257,0 0,0"
               style="fill:#ffffff;fill-opacity:1;fill-rule:nonzero;stroke:none"
               id="path416" /></g></g></g><text
         xml:space="preserve"
         transform="matrix(1,0,0,-1,275.39854,487.0438)"
         style="font-variant:normal;font-weight:500;font-stretch:normal;font-size:5.0238px;font-family:'Montserrat Medium';-inkscape-font-specification:Montserrat-Medium;writing-mode:lr-tb;fill:#30373a;fill-opacity:1;fill-rule:nonzero;stroke:none"
         id="text420"><tspan
           x="0"
           y="0"
           id="tspan418">2</tspan></text><g
         id="g422"><g
           id="g424"
           clip-path="url(#clipPath428)"><g
             id="g430"
             transform="translate(276.7657,484.8857)"><path
               d="M 0,0 C 2.257,0 4.087,1.83 4.087,4.087 4.087,6.345 2.257,8.174 0,8.174 -2.257,8.174 -4.087,6.345 -4.087,4.087 -4.087,1.83 -2.257,0 0,0 Z"
               style="fill:none;stroke:#000000;stroke-width:0.37;stroke-linecap:butt;stroke-linejoin:miter;stroke-miterlimit:4;stroke-dasharray:none;stroke-opacity:1"
               id="path432" /></g><g
             id="g434"
             transform="translate(208.4046,502.7993)"><path
               d="M 0,0 C 2.257,0 4.087,1.83 4.087,4.087 4.087,6.345 2.257,8.174 0,8.174 -2.257,8.174 -4.087,6.345 -4.087,4.087 -4.087,1.83 -2.257,0 0,0"
               style="fill:#ffffff;fill-opacity:1;fill-rule:nonzero;stroke:none"
               id="path436" /></g></g></g><text
         xml:space="preserve"
         transform="matrix(1,0,0,-1,206.66074,504.9574)"
         style="font-variant:normal;font-weight:500;font-stretch:normal;font-size:5.0238px;font-family:'Montserrat Medium';-inkscape-font-specification:Montserrat-Medium;writing-mode:lr-tb;fill:#30373a;fill-opacity:1;fill-rule:nonzero;stroke:none"
         id="text440"><tspan
           x="0"
           y="0"
           id="tspan438">8</tspan></text><g
         id="g442"><g
           id="g444"
           clip-path="url(#clipPath448)"><g
             id="g450"
             transform="translate(208.4046,502.7993)"><path
               d="M 0,0 C 2.257,0 4.087,1.83 4.087,4.087 4.087,6.345 2.257,8.174 0,8.174 -2.257,8.174 -4.087,6.345 -4.087,4.087 -4.087,1.83 -2.257,0 0,0 Z"
               style="fill:none;stroke:#000000;stroke-width:0.37;stroke-linecap:butt;stroke-linejoin:miter;stroke-miterlimit:4;stroke-dasharray:none;stroke-opacity:1"
               id="path452" /></g><g
             id="g454"
             transform="translate(276.7889,434.7817)"><path
               d="M 0,0 C 2.257,0 4.087,1.83 4.087,4.087 4.087,6.345 2.257,8.174 0,8.174 -2.257,8.174 -4.087,6.345 -4.087,4.087 -4.087,1.83 -2.257,0 0,0"
               style="fill:#ffffff;fill-opacity:1;fill-rule:nonzero;stroke:none"
               id="path456" /></g></g></g><text
         xml:space="preserve"
         transform="matrix(1,0,0,-1,275.42674,436.9398)"
         style="font-variant:normal;font-weight:500;font-stretch:normal;font-size:5.0238px;font-family:'Montserrat Medium';-inkscape-font-specification:Montserrat-Medium;writing-mode:lr-tb;fill:#30373a;fill-opacity:1;fill-rule:nonzero;stroke:none"
         id="text460"><tspan
           x="0"
           y="0"
           id="tspan458">3</tspan></text><g
         id="g462"><g
           id="g464"
           clip-path="url(#clipPath468)"><g
             id="g470"
             transform="translate(276.7889,434.7817)"><path
               d="M 0,0 C 2.257,0 4.087,1.83 4.087,4.087 4.087,6.345 2.257,8.174 0,8.174 -2.257,8.174 -4.087,6.345 -4.087,4.087 -4.087,1.83 -2.257,0 0,0 Z"
               style="fill:none;stroke:#000000;stroke-width:0.37;stroke-linecap:butt;stroke-linejoin:miter;stroke-miterlimit:4;stroke-dasharray:none;stroke-opacity:1"
               id="path472" /></g><g
             id="g474"
             transform="translate(258.4758,416.4502)"><path
               d="M 0,0 C 2.257,0 4.087,1.83 4.087,4.087 4.087,6.345 2.257,8.174 0,8.174 -2.257,8.174 -4.087,6.345 -4.087,4.087 -4.087,1.83 -2.257,0 0,0"
               style="fill:#ffffff;fill-opacity:1;fill-rule:nonzero;stroke:none"
               id="path476" /></g></g></g><text
         xml:space="preserve"
         transform="matrix(1,0,0,-1,256.61886,418.6083)"
         style="font-variant:normal;font-weight:500;font-stretch:normal;font-size:5.0238px;font-family:'Montserrat Medium';-inkscape-font-specification:Montserrat-Medium;writing-mode:lr-tb;fill:#30373a;fill-opacity:1;fill-rule:nonzero;stroke:none"
         id="text480"><tspan
           x="0"
           y="0"
           id="tspan478">4</tspan></text><g
         id="g482"><g
           id="g484"
           clip-path="url(#clipPath488)"><g
             id="g490"
             transform="translate(258.4758,416.4502)"><path
               d="M 0,0 C 2.257,0 4.087,1.83 4.087,4.087 4.087,6.345 2.257,8.174 0,8.174 -2.257,8.174 -4.087,6.345 -4.087,4.087 -4.087,1.83 -2.257,0 0,0 Z"
               style="fill:none;stroke:#000000;stroke-width:0.37;stroke-linecap:butt;stroke-linejoin:miter;stroke-miterlimit:4;stroke-dasharray:none;stroke-opacity:1"
               id="path492" /></g><g
             id="g494"
             transform="translate(207.8634,416.8638)"><path
               d="M 0,0 C 2.257,0 4.087,1.83 4.087,4.087 4.087,6.345 2.257,8.174 0,8.174 -2.257,8.174 -4.087,6.345 -4.087,4.087 -4.087,1.83 -2.257,0 0,0"
               style="fill:#ffffff;fill-opacity:1;fill-rule:nonzero;stroke:none"
               id="path496" /></g></g></g><text
         xml:space="preserve"
         transform="matrix(1,0,0,-1,206.54652,419.0219)"
         style="font-variant:normal;font-weight:500;font-stretch:normal;font-size:5.0238px;font-family:'Montserrat Medium';-inkscape-font-specification:Montserrat-Medium;writing-mode:lr-tb;fill:#30373a;fill-opacity:1;fill-rule:nonzero;stroke:none"
         id="text500"><tspan
           x="0"
           y="0"
           id="tspan498">5</tspan></text><g
         id="g502"><g
           id="g504"
           clip-path="url(#clipPath508)"><g
             id="g510"
             transform="translate(207.8634,416.8638)"><path
               d="M 0,0 C 2.257,0 4.087,1.83 4.087,4.087 4.087,6.345 2.257,8.174 0,8.174 -2.257,8.174 -4.087,6.345 -4.087,4.087 -4.087,1.83 -2.257,0 0,0 Z"
               style="fill:none;stroke:#000000;stroke-width:0.37;stroke-linecap:butt;stroke-linejoin:miter;stroke-miterlimit:4;stroke-dasharray:none;stroke-opacity:1"
               id="path512" /></g><g
             id="g514"
             transform="translate(258.1334,503.3965)"><path
               d="M 0,0 C 2.257,0 4.087,1.83 4.087,4.087 4.087,6.345 2.257,8.174 0,8.174 -2.257,8.174 -4.087,6.345 -4.087,4.087 -4.087,1.83 -2.257,0 0,0"
               style="fill:#ffffff;fill-opacity:1;fill-rule:nonzero;stroke:none"
               id="path516" /></g></g></g><text
         xml:space="preserve"
         transform="matrix(1,0,0,-1,257.22846,505.5546)"
         style="font-variant:normal;font-weight:500;font-stretch:normal;font-size:5.0238px;font-family:'Montserrat Medium';-inkscape-font-specification:Montserrat-Medium;writing-mode:lr-tb;fill:#30373a;fill-opacity:1;fill-rule:nonzero;stroke:none"
         id="text520"><tspan
           x="0"
           y="0"
           id="tspan518">1</tspan></text><g
         id="g522"><g
           id="g524"
           clip-path="url(#clipPath528)"><g
             id="g530"
             transform="translate(258.1334,503.3965)"><path
               d="M 0,0 C 2.257,0 4.087,1.83 4.087,4.087 4.087,6.345 2.257,8.174 0,8.174 -2.257,8.174 -4.087,6.345 -4.087,4.087 -4.087,1.83 -2.257,0 0,0 Z"
               style="fill:none;stroke:#000000;stroke-width:0.37;stroke-linecap:butt;stroke-linejoin:miter;stroke-miterlimit:4;stroke-dasharray:none;stroke-opacity:1"
               id="path532" /></g></g></g></g></g></svg>
